<svg xmlns="http://www.w3.org/2000/svg" width="807" height="390" viewBox="0 0 807 390" font-family="Segoe UI,Helvetica,Arial,sans-serif"><defs><linearGradient id="g0" x1="0" y1="0" x2="1" y2="1"><stop offset="0" stop-color="#00E5C9"/><stop offset="1" stop-color="#00B8A3"/></linearGradient><linearGradient id="g1" x1="0" y1="0" x2="1" y2="1"><stop offset="0" stop-color="#FFCE4F"/><stop offset="1" stop-color="#FFB800"/></linearGradient><linearGradient id="g2" x1="0" y1="0" x2="1" y2="1"><stop offset="0" stop-color="#FF7A70"/><stop offset="1" stop-color="#EF4743"/></linearGradient><linearGradient id="bg" x1="0" y1="0" x2="1" y2="1"><stop offset="0" stop-color="#141922"/><stop offset="1" stop-color="#0B0E13"/></linearGradient><linearGradient id="hr" x1="0" y1="0" x2="1" y2="0"><stop offset="0" stop-color="#FFA116" stop-opacity="0"/><stop offset=".45" stop-color="#FFA116" stop-opacity=".85"/><stop offset="1" stop-color="#FFA116" stop-opacity="0"/></linearGradient><filter id="gl" x="-50%" y="-50%" width="200%" height="200%"><feGaussianBlur stdDeviation="6" result="b"/><feMerge><feMergeNode in="b"/><feMergeNode in="SourceGraphic"/></feMerge></filter><pattern id="em" x="34" y="258" width="14" height="14" patternUnits="userSpaceOnUse"><rect width="11" height="11" rx="2.5" fill="#182029"/></pattern></defs><rect width="807" height="390" rx="16" fill="url(#bg)"/><rect x=".75" y=".75" width="805.5" height="388.5" rx="15.25" fill="none" stroke="#222A37" stroke-width="1.5"/><text x="34" y="42" fill="#FFF" font-size="20" font-weight="700">saumil-codes</text><text x="773" y="42" text-anchor="end" fill="#FFA116" font-size="13" font-weight="700" letter-spacing="2">LEETCODE</text><rect x="34" y="58" width="739" height="1.5" fill="url(#hr)"/><g transform="translate(116,152)"><circle r="58" fill="none" stroke="#1B222C" stroke-width="14"/><g transform="rotate(-90)" filter="url(#gl)"><circle r="58" fill="none" stroke="url(#g0)" stroke-width="14" stroke-dasharray="190.4 174.1" stroke-dashoffset="0.0" stroke-linecap="round"/><circle r="58" fill="none" stroke="url(#g1)" stroke-width="14" stroke-dasharray="138.3 226.1" stroke-dashoffset="-193.4" stroke-linecap="round"/><circle r="58" fill="none" stroke="url(#g2)" stroke-width="14" stroke-dasharray="26.7 337.7" stroke-dashoffset="-334.7" stroke-linecap="round"/></g><text y="6" text-anchor="middle" fill="#FFF" font-size="40" font-weight="700">49</text><text y="28" text-anchor="middle" fill="#69727F" font-size="11" font-weight="600" letter-spacing="1.6">SOLVED</text></g><text x="250" y="104" fill="#AEB6C4" font-size="14" font-weight="600">Easy</text><text x="773" y="104" text-anchor="end" font-size="14"><tspan fill="#FFF" font-weight="700">26</tspan><tspan fill="#59616F"> / 960</tspan></text><rect x="250" y="113" width="523" height="7" rx="3.5" fill="#222834"/><rect x="250" y="113" width="14.2" height="7" rx="3.5" fill="url(#g0)"/><text x="250" y="148" fill="#AEB6C4" font-size="14" font-weight="600">Medium</text><text x="773" y="148" text-anchor="end" font-size="14"><tspan fill="#FFF" font-weight="700">19</tspan><tspan fill="#59616F"> / 2103</tspan></text><rect x="250" y="157" width="523" height="7" rx="3.5" fill="#222834"/><rect x="250" y="157" width="7.0" height="7" rx="3.5" fill="url(#g1)"/><text x="250" y="192" fill="#AEB6C4" font-size="14" font-weight="600">Hard</text><text x="773" y="192" text-anchor="end" font-size="14"><tspan fill="#FFF" font-weight="700">4</tspan><tspan fill="#59616F"> / 966</tspan></text><rect x="250" y="201" width="523" height="7" rx="3.5" fill="#222834"/><rect x="250" y="201" width="7.0" height="7" rx="3.5" fill="url(#g2)"/><text x="34" y="228" fill="#AEB6C4" font-size="13" font-weight="600">Last 52 weeks</text><text x="773" y="228" text-anchor="end" font-size="13"><tspan fill="#39D353" font-weight="700">34</tspan><tspan fill="#69727F"> day streak &#183; </tspan><tspan fill="#FFF" font-weight="700">34</tspan><tspan fill="#69727F"> active days &#183; </tspan><tspan fill="#00E5C9" font-weight="700">85.9%</tspan><tspan fill="#69727F"> acceptance</tspan></text><text x="76" y="248" fill="#5A6472" font-size="10" font-weight="600">Sep</text><text x="132" y="248" fill="#5A6472" font-size="10" font-weight="600">Oct</text><text x="188" y="248" fill="#5A6472" font-size="10" font-weight="600">Nov</text><text x="258" y="248" fill="#5A6472" font-size="10" font-weight="600">Dec</text><text x="314" y="248" fill="#5A6472" font-size="10" font-weight="600">Jan</text><text x="370" y="248" fill="#5A6472" font-size="10" font-weight="600">Feb</text><text x="426" y="248" fill="#5A6472" font-size="10" font-weight="600">Mar</text><text x="496" y="248" fill="#5A6472" font-size="10" font-weight="600">Apr</text><text x="552" y="248" fill="#5A6472" font-size="10" font-weight="600">May</text><text x="622" y="248" fill="#5A6472" font-size="10" font-weight="600">Jun</text><text x="678" y="248" fill="#5A6472" font-size="10" font-weight="600">Jul</text><text x="734" y="248" fill="#5A6472" font-size="10" font-weight="600">Aug</text><rect x="34" y="258" width="739" height="95" fill="url(#em)"/><rect x="692" y="342" width="11" height="11" rx="2.5" fill="#006D32"/><rect x="706" y="258" width="11" height="11" rx="2.5" fill="#0E4429"/><rect x="706" y="272" width="11" height="11" rx="2.5" fill="#0E4429"/><rect x="706" y="286" width="11" height="11" rx="2.5" fill="#0E4429"/><rect x="706" y="300" width="11" height="11" rx="2.5" fill="#0E4429"/><rect x="706" y="314" width="11" height="11" rx="2.5" fill="#0E4429"/><rect x="706" y="328" width="11" height="11" rx="2.5" fill="#0E4429"/><rect x="706" y="342" width="11" height="11" rx="2.5" fill="#0E4429"/><rect x="720" y="258" width="11" height="11" rx="2.5" fill="#0E4429"/><rect x="720" y="272" width="11" height="11" rx="2.5" fill="#0E4429"/><rect x="720" y="286" width="11" height="11" rx="2.5" fill="#006D32"/><rect x="720" y="300" width="11" height="11" rx="2.5" fill="#0E4429"/><rect x="720" y="314" width="11" height="11" rx="2.5" fill="#0E4429"/><rect x="720" y="328" width="11" height="11" rx="2.5" fill="#0E4429"/><rect x="720" y="342" width="11" height="11" rx="2.5" fill="#0E4429"/><rect x="734" y="258" width="11" height="11" rx="2.5" fill="#39D353"/><rect x="734" y="272" width="11" height="11" rx="2.5" fill="#0E4429"/><rect x="734" y="286" width="11" height="11" rx="2.5" fill="#0E4429"/><rect x="734" y="300" width="11" height="11" rx="2.5" fill="#0E4429"/><rect x="734" y="314" width="11" height="11" rx="2.5" fill="#0E4429"/><rect x="734" y="328" width="11" height="11" rx="2.5" fill="#0E4429"/><rect x="734" y="342" width="11" height="11" rx="2.5" fill="#0E4429"/><rect x="748" y="258" width="11" height="11" rx="2.5" fill="#006D32"/><rect x="748" y="272" width="11" height="11" rx="2.5" fill="#0E4429"/><rect x="748" y="286" width="11" height="11" rx="2.5" fill="#0E4429"/><rect x="748" y="300" width="11" height="11" rx="2.5" fill="#0E4429"/><rect x="748" y="314" width="11" height="11" rx="2.5" fill="#0E4429"/><rect x="748" y="328" width="11" height="11" rx="2.5" fill="#006D32"/><rect x="748" y="342" width="11" height="11" rx="2.5" fill="#26A641"/><rect x="762" y="258" width="11" height="11" rx="2.5" fill="#26A641"/><rect x="762" y="272" width="11" height="11" rx="2.5" fill="#0E4429"/><rect x="762" y="286" width="11" height="11" rx="2.5" fill="#0E4429"/><rect x="762" y="300" width="11" height="11" rx="2.5" fill="#0E4429"/><rect x="762" y="314" width="11" height="11" rx="2.5" fill="#0E4429"/></svg>